# xmcd
#
# Track frame offsets:
#	150
#	4193
#	21407
#	42150
#	61760
#	84773
#	107989
#	143805
#	162643
#	186926
#	207543
#
# Disc length: 3073 seconds
#
# Revision: 2
# Processed by: cddbd v1.5.2PL0 Copyright (c) Steve Scherf et al.
# Submitted via: audiograbber 1.83.01
#
DISCID=950bff0b
DTITLE=Bonobo - Days To Come [CD 1)
DYEAR=2006
DGENRE=Electronic
TTITLE0=Intro
TTITLE1=Days To Come [featuring Bajka]
TTITLE2=Between The Lines [featuring Bajka]
TTITLE3=The Fever
TTITLE4=Ketto
TTITLE5=Nightlite [featuring Bajka]
TTITLE6=Transmission 94 (Parts 1 and 2)
TTITLE7=On Your Marks
TTITLE8=If You Stayed Over [featuring Fink]
TTITLE9=Walk In The Sky [featuring Bajka]
TTITLE10=Recurring
EXTD=
EXTT0=
EXTT1=
EXTT2=
EXTT3=
EXTT4=
EXTT5=
EXTT6=
EXTT7=
EXTT8=
EXTT9=
EXTT10=
PLAYORDER=
